<svg width="56" height="57" viewBox="0 0 56 57" fill="none" xmlns="http://www.w3.org/2000/svg">
<g clip-path="url(#clip0_3184_27329)">
<path d="M27.9895 56.8604C43.4477 56.8604 55.979 44.329 55.979 28.8708C55.979 13.4127 43.4477 0.881348 27.9895 0.881348C12.5313 0.881348 0 13.4127 0 28.8708C0 44.329 12.5313 56.8604 27.9895 56.8604Z" fill="#F4A22B"/>
<path fill-rule="evenodd" clip-rule="evenodd" d="M25.26 46.8026C25.155 46.8026 25.029 46.7396 24.924 46.6556L10.2258 31.9365C10.1418 31.8525 10.0789 31.7265 10.0789 31.6005C10.0789 31.4745 10.1418 31.3485 10.2258 31.2645L30.3833 11.1071C30.5723 10.9181 30.8663 10.9181 31.0552 11.1071L45.7744 25.8052C45.8584 25.9102 45.9214 26.0152 45.9214 26.1412C45.9214 26.2672 45.8584 26.3932 45.7744 26.4981L25.5959 46.6556C25.5119 46.7396 25.3859 46.8026 25.26 46.8026ZM28.4306 27.884C28.5146 27.884 28.5775 27.884 28.6405 27.863C29.2915 27.821 29.8794 27.506 30.3413 27.0441C30.8033 26.6031 31.0972 25.9942 31.1602 25.3643C31.2022 24.7554 31.0342 24.1674 30.5933 23.7265C29.4594 22.5926 28.3886 23.2225 27.2967 23.9365C26.4148 24.5244 25.5749 25.1333 24.672 24.2304C24.3571 23.8945 24.2311 23.4535 24.2731 23.0126C24.3151 22.4876 24.567 22.0047 24.945 21.6477C25.302 21.2908 25.7849 21.0388 26.3098 20.9758C26.7508 20.9548 27.1917 21.0808 27.5067 21.3958C27.6117 21.5008 27.7796 21.5008 27.8846 21.3958C27.9896 21.2908 27.9896 21.1228 27.8846 21.0178C27.4647 20.5769 26.8558 20.4089 26.2468 20.4509C25.6169 20.5139 25.008 20.8079 24.567 21.2698C24.1051 21.7317 23.7901 22.3197 23.7481 22.9706C23.6852 23.5795 23.8741 24.1674 24.3151 24.6084C25.4279 25.7212 26.4988 25.1123 27.5907 24.3774C28.4936 23.7895 29.3125 23.2016 30.2153 24.1044C30.5303 24.4194 30.6563 24.8603 30.6353 25.3223C30.5723 25.8262 30.3203 26.3092 29.9634 26.6661C29.6064 27.0441 29.1235 27.296 28.5985 27.338C28.1576 27.38 27.7167 27.254 27.3807 26.9181C27.2757 26.8341 27.1077 26.8341 27.0027 26.9181C26.8978 27.0231 26.8978 27.1911 27.0027 27.296C27.4017 27.695 27.9056 27.884 28.4306 27.884ZM18.0579 33.9312L19.2127 32.7764L19.2337 32.7554L19.7167 32.2724C20.0106 31.9785 20.4306 31.8105 20.8715 31.8105C21.3125 31.8105 21.7324 31.9785 22.0264 32.2724C22.6773 32.9233 22.6773 33.9732 22.0264 34.6031L20.3676 36.2619L18.0579 33.9312ZM19.8216 31.5375C19.8426 31.4325 19.8426 31.3275 19.8426 31.2435C19.8426 30.6556 19.6327 30.1097 19.2127 29.6897C18.7928 29.2908 18.2468 29.0598 17.6799 29.0598C17.092 29.0598 16.546 29.2908 16.1261 29.6897L14.7823 31.0546C14.6773 31.1596 14.6773 31.3275 14.7823 31.4325L17.4909 34.1202V34.1412L20.1786 36.8288C20.2416 36.8708 20.3046 36.9128 20.3676 36.9128C20.4516 36.9128 20.5146 36.8708 20.5565 36.8288L22.4043 34.9811C23.2652 34.1412 23.2652 32.7554 22.4043 31.8945C22.0054 31.4955 21.4594 31.2645 20.8715 31.2645C20.4936 31.2645 20.1366 31.3485 19.8216 31.5375ZM15.3492 31.2435L16.5041 30.0677C16.819 29.7527 17.239 29.5848 17.6799 29.5848C18.1209 29.5848 18.5198 29.7527 18.8348 30.0677C19.1497 30.3827 19.3177 30.8026 19.3177 31.2435C19.3177 31.6635 19.1497 32.0834 18.8348 32.3984L17.6799 33.5533L15.3492 31.2435ZM28.5565 17.2593L26.9607 18.8551C26.8558 18.9601 26.8558 19.1281 26.9607 19.233C27.0657 19.338 27.2337 19.338 27.3387 19.233L28.7455 17.8262L33.9739 23.0546C34.0159 23.0966 34.0999 23.1176 34.1628 23.1176C34.2258 23.1176 34.2888 23.0966 34.3518 23.0546C34.4568 22.9496 34.4568 22.7816 34.3518 22.6766L29.1235 17.4483L30.5513 16.0414C30.6353 15.9365 30.6353 15.7685 30.5513 15.6635C30.4463 15.5585 30.2783 15.5585 30.1733 15.6635L28.5775 17.2593C28.5565 17.2593 28.5775 17.2593 28.5565 17.2593ZM24.546 32.7344C24.609 32.7344 24.693 32.7134 24.735 32.6504L27.9266 29.4588C28.0316 29.3538 28.0316 29.1858 27.9266 29.0808C27.8216 28.9758 27.6537 28.9758 27.5487 29.0808L24.546 32.0834L22.2153 29.7737L25.239 26.7501C25.3439 26.6451 25.3439 26.4771 25.239 26.3722C25.134 26.2672 24.966 26.2672 24.861 26.3722L21.8374 29.3958L19.5067 27.0651L22.5303 24.0624C22.6353 23.9575 22.6353 23.7895 22.5303 23.6845C22.4253 23.5795 22.2573 23.5795 22.1523 23.6845L18.9607 26.8761C18.8978 26.9181 18.8768 27.0021 18.8768 27.0651C18.8768 27.1281 18.8978 27.2121 18.9607 27.254L24.3571 32.6504C24.3991 32.7134 24.4831 32.7344 24.546 32.7344ZM36.9975 31.3275C37.0815 31.3275 37.1445 31.3065 37.1865 31.2645L38.9712 29.4798C39.0762 29.3748 39.0762 29.2068 38.9712 29.1018C38.8663 28.9968 38.6983 28.9968 38.5933 29.1018L36.9975 30.6976L35.8846 29.5638L37.4804 27.968C37.5854 27.863 37.5854 27.695 37.4804 27.59C37.3754 27.485 37.2075 27.485 37.1025 27.59L35.5067 29.1858L34.3728 28.0519L35.9686 26.4561C36.0736 26.3512 36.0736 26.1832 35.9686 26.0782C35.8636 25.9732 35.6957 25.9732 35.5907 26.0782L33.8059 27.863C33.7009 27.968 33.7009 28.1359 33.8059 28.2409L36.8085 31.2645C36.8715 31.3065 36.9345 31.3275 36.9975 31.3275ZM31.0762 37.2698C31.1602 37.2698 31.2232 37.2278 31.2652 37.1858L33.05 35.401C33.155 35.296 33.155 35.1281 33.05 35.0231C32.945 34.9181 32.777 34.9181 32.672 35.0231L31.0762 36.6189L28.2626 33.7842C28.1576 33.6792 27.9896 33.6792 27.8846 33.7842C27.7796 33.8892 27.7796 34.0572 27.8846 34.1622L30.8873 37.1858C30.9502 37.2278 31.0132 37.2698 31.0762 37.2698ZM24.1051 38.6766C24.3151 38.6556 24.5251 38.7186 24.693 38.8656C24.798 38.9706 24.966 38.9706 25.071 38.8656C25.176 38.7606 25.176 38.5926 25.071 38.4876C24.798 38.2147 24.4201 38.1097 24.0631 38.1307C23.6642 38.1727 23.3072 38.3617 23.0342 38.6346C22.7613 38.9076 22.5723 39.2645 22.5513 39.6425C22.5093 40.0205 22.6353 40.3984 22.8873 40.6504C23.5592 41.3223 24.2101 40.9863 24.882 40.5454C25.323 40.2514 25.7429 39.9155 26.2048 40.3774C26.5618 40.7344 26.3728 41.3223 26.0579 41.6372C25.8689 41.8262 25.6169 41.9522 25.3649 41.9732C25.155 41.9942 24.945 41.9312 24.777 41.7842C24.672 41.6792 24.5041 41.6792 24.3991 41.7842C24.2941 41.8892 24.2941 42.0572 24.3991 42.1622C24.63 42.3932 24.966 42.5191 25.281 42.5191H25.4069C25.8059 42.4771 26.1628 42.2882 26.4358 42.0152C26.9607 41.4903 27.1497 40.5664 26.5828 39.9995C25.9109 39.3275 25.26 39.6635 24.588 40.1044C24.1471 40.3984 23.7271 40.7344 23.2652 40.2724C23.1182 40.1254 23.0552 39.9155 23.0762 39.6845C23.0972 39.4325 23.2232 39.1806 23.4122 39.0126C23.6012 38.8236 23.8531 38.6976 24.1051 38.6766ZM40.0001 25.3643C40.1051 25.1753 40.1681 24.9443 40.1681 24.7134C40.1681 24.3564 40.0211 24.0204 39.7691 23.7685C39.5172 23.5165 39.1812 23.3905 38.8243 23.3905C38.4673 23.3905 38.1313 23.5165 37.8794 23.7685L36.8505 24.7974C36.7455 24.9023 36.7455 25.0913 36.8505 25.1753L38.3623 26.6871V26.7081L39.8741 28.1989C39.9161 28.2619 40.0001 28.2829 40.0631 28.2829C40.1261 28.2829 40.2101 28.2619 40.2521 28.1989C40.3571 28.0939 40.3571 27.926 40.2521 27.821L38.9292 26.4981L39.6432 25.7842L41.5749 26.6451C41.7009 26.7081 41.8479 26.6451 41.9109 26.5191C41.9739 26.3722 41.9109 26.2252 41.7849 26.1622L40.0001 25.3643ZM37.4174 24.9863L38.2573 24.1464C38.5723 23.8525 39.0972 23.8525 39.3912 24.1464C39.5382 24.3144 39.6222 24.5034 39.6222 24.7134C39.6222 24.9233 39.5382 25.1333 39.3912 25.2803L38.5513 26.1202L37.4174 24.9863ZM33.9529 34.3932C34.0159 34.3932 34.0789 34.3722 34.1418 34.3092L35.9266 32.5244C36.0316 32.4194 36.0316 32.2514 35.9266 32.1464C35.8216 32.0414 35.6537 32.0414 35.5487 32.1464L33.9529 33.7422L31.1182 30.9286C31.0132 30.8236 30.8453 30.8236 30.7403 30.9286C30.6353 31.0336 30.6353 31.2016 30.7403 31.3065L33.7639 34.3092C33.8059 34.3722 33.8689 34.3932 33.9529 34.3932ZM28.2416 40.1044C28.3046 40.1044 28.3886 40.0834 28.4306 40.0205L30.2153 38.2357C30.3203 38.1307 30.3203 37.9627 30.2153 37.8577C30.1104 37.7527 29.9424 37.7527 29.8374 37.8577L28.2416 39.4535L27.1077 38.3197L28.7035 36.7239C28.8085 36.6189 28.8085 36.4509 28.7035 36.3459C28.5985 36.2409 28.4306 36.2409 28.3256 36.3459L26.7298 37.9417L25.5959 36.8079L27.1917 35.2121C27.2967 35.1071 27.2967 34.9391 27.1917 34.8341C27.0867 34.7291 26.9188 34.7291 26.8138 34.8341L25.029 36.6189C24.987 36.6819 24.966 36.7449 24.966 36.8079C24.966 36.8918 24.987 36.9548 25.029 36.9968L28.0526 40.0205C28.0946 40.0834 28.1786 40.1044 28.2416 40.1044Z" fill="#FAFAFA"/>
<path fill-rule="evenodd" clip-rule="evenodd" d="M31.748 10.9812L45.2284 11.3382C45.4803 11.3382 45.6903 11.5481 45.6903 11.8001L45.9003 25.1544L31.748 10.9812ZM40.9659 18.3933C40.315 18.3933 39.6851 18.1203 39.2231 17.6584C38.7402 17.1964 38.4882 16.5665 38.4882 15.9156C38.4882 15.2437 38.7402 14.6347 39.2231 14.1518C39.6851 13.6899 40.315 13.4379 40.9659 13.4379C41.6168 13.4379 42.2467 13.6899 42.7087 14.1518C43.6746 15.1177 43.6746 16.6925 42.7087 17.6584C42.2467 18.1203 41.6168 18.3933 40.9659 18.3933Z" fill="#FAFAFA"/>
</g>
<defs>
<clipPath id="clip0_3184_27329">
<rect width="56" height="56" fill="white" transform="translate(0 0.881348)"/>
</clipPath>
</defs>
</svg>
