<svg width="22" height="23" viewBox="0 0 22 23" fill="none" xmlns="http://www.w3.org/2000/svg">
<g clip-path="url(#clip0_3195_6621)">
<path d="M16.6919 0.972168H5.30797C2.53421 0.972168 0.285645 3.22074 0.285645 5.99449V17.3784C0.285645 20.1522 2.53421 22.4007 5.30797 22.4007H16.6919C19.4656 22.4007 21.7142 20.1522 21.7142 17.3784V5.99449C21.7142 3.22074 19.4656 0.972168 16.6919 0.972168Z" fill="url(#paint0_radial_3195_6621)"/>
<path d="M16.6919 0.972168H5.30797C2.53421 0.972168 0.285645 3.22074 0.285645 5.99449V17.3784C0.285645 20.1522 2.53421 22.4007 5.30797 22.4007H16.6919C19.4656 22.4007 21.7142 20.1522 21.7142 17.3784V5.99449C21.7142 3.22074 19.4656 0.972168 16.6919 0.972168Z" fill="url(#paint1_radial_3195_6621)"/>
<path d="M11.0007 3.31592C8.72741 3.31592 8.44206 3.32588 7.54926 3.36648C6.65813 3.40732 6.04985 3.54837 5.51765 3.75537C4.96703 3.96915 4.50004 4.25518 4.03481 4.72058C3.56915 5.1859 3.28313 5.65289 3.06868 6.20325C2.86109 6.73562 2.71988 7.34415 2.67979 8.23486C2.63986 9.12775 2.62939 9.41318 2.62939 11.6865C2.62939 13.9599 2.63944 14.2443 2.67995 15.1371C2.72097 16.0283 2.86201 16.6365 3.06885 17.1687C3.2828 17.7193 3.56882 18.1863 4.03422 18.6516C4.49937 19.1172 4.96636 19.4039 5.51656 19.6177C6.04918 19.8247 6.65755 19.9657 7.54851 20.0066C8.44139 20.0472 8.72649 20.0572 10.9997 20.0572C13.2732 20.0572 13.5576 20.0472 14.4504 20.0066C15.3416 19.9657 15.9505 19.8247 16.4831 19.6177C17.0335 19.4039 17.4998 19.1172 17.9649 18.6516C18.4305 18.1863 18.7165 17.7193 18.931 17.169C19.1368 16.6365 19.2781 16.0281 19.3199 15.1373C19.36 14.2445 19.3705 13.9599 19.3705 11.6865C19.3705 9.41318 19.36 9.12792 19.3199 8.23503C19.2781 7.3439 19.1368 6.7357 18.931 6.2035C18.7165 5.65289 18.4305 5.1859 17.9649 4.72058C17.4993 4.25501 17.0337 3.96899 16.4826 3.75545C15.949 3.54837 15.3404 3.40724 14.4493 3.36648C13.5564 3.32588 13.2721 3.31592 10.9981 3.31592H11.0007ZM10.2498 4.82437C10.4727 4.82404 10.7214 4.82437 11.0007 4.82437C13.2357 4.82437 13.5005 4.83241 14.3831 4.8725C15.1993 4.90984 15.6422 5.04619 15.9373 5.16078C16.3279 5.31246 16.6064 5.49385 16.8992 5.7869C17.1922 6.07987 17.3735 6.35886 17.5256 6.74951C17.6402 7.04415 17.7767 7.48712 17.8139 8.30325C17.854 9.18567 17.8627 9.45068 17.8627 11.6846C17.8627 13.9185 17.854 14.1836 17.8139 15.066C17.7765 15.8821 17.6402 16.3251 17.5256 16.6198C17.3739 17.0104 17.1922 17.2886 16.8992 17.5814C16.6063 17.8744 16.3281 18.0557 15.9373 18.2074C15.6426 18.3225 15.1993 18.4586 14.3831 18.4959C13.5007 18.536 13.2357 18.5447 11.0007 18.5447C8.76558 18.5447 8.50066 18.536 7.61832 18.4959C6.80219 18.4582 6.35922 18.3219 6.06391 18.2073C5.67334 18.0555 5.39427 17.8742 5.1013 17.5812C4.80833 17.2883 4.62702 17.0099 4.47493 16.6191C4.36034 16.3244 4.22381 15.8814 4.18665 15.0653C4.14655 14.1829 4.13852 13.9179 4.13852 11.6825C4.13852 9.44725 4.14655 9.18358 4.18665 8.30116C4.22398 7.48503 4.36034 7.04206 4.47493 6.747C4.62669 6.35635 4.80833 6.07736 5.10138 5.78439C5.39435 5.49142 5.67334 5.31003 6.06399 5.15802C6.35905 5.04293 6.80219 4.90691 7.61832 4.86941C8.3905 4.8345 8.68975 4.82404 10.2498 4.82228V4.82437ZM15.4689 6.21422C14.9143 6.21422 14.4644 6.66371 14.4644 7.21835C14.4644 7.77289 14.9143 8.22281 15.4689 8.22281C16.0234 8.22281 16.4733 7.77289 16.4733 7.21835C16.4733 6.6638 16.0234 6.21388 15.4689 6.21388V6.21422ZM11.0007 7.38785C8.6268 7.38785 6.70208 9.31257 6.70208 11.6865C6.70208 14.0605 8.6268 15.9843 11.0007 15.9843C13.3747 15.9843 15.2987 14.0605 15.2987 11.6865C15.2987 9.31265 13.3745 7.38785 11.0005 7.38785H11.0007ZM11.0007 8.8963C12.5416 8.8963 13.7909 10.1454 13.7909 11.6865C13.7909 13.2275 12.5416 14.4768 11.0007 14.4768C9.45967 14.4768 8.21053 13.2275 8.21053 11.6865C8.21053 10.1454 9.45967 8.8963 11.0007 8.8963Z" fill="white"/>
</g>
<defs>
<radialGradient id="paint0_radial_3195_6621" cx="0" cy="0" r="1" gradientUnits="userSpaceOnUse" gradientTransform="translate(5.97761 24.0512) rotate(-90) scale(21.2373 19.7524)">
<stop stop-color="#FFDD55"/>
<stop offset="0.1" stop-color="#FFDD55"/>
<stop offset="0.5" stop-color="#FF543E"/>
<stop offset="1" stop-color="#C837AB"/>
</radialGradient>
<radialGradient id="paint1_radial_3195_6621" cx="0" cy="0" r="1" gradientUnits="userSpaceOnUse" gradientTransform="translate(-3.30372 2.51578) rotate(78.681) scale(9.49319 39.1312)">
<stop stop-color="#3771C8"/>
<stop offset="0.128" stop-color="#3771C8"/>
<stop offset="1" stop-color="#6600FF" stop-opacity="0"/>
</radialGradient>
<clipPath id="clip0_3195_6621">
<rect width="21.4286" height="21.4286" fill="white" transform="translate(0.285645 0.972656)"/>
</clipPath>
</defs>
</svg>
