<svg width="102" height="35" viewBox="0 0 102 35" fill="none" xmlns="http://www.w3.org/2000/svg">
<rect x="1.04599" y="1.14121" width="100.749" height="32.853" rx="4.10663" fill="url(#paint0_linear_3267_6003)"/>
<rect x="1.04599" y="1.14121" width="100.749" height="32.853" rx="4.10663" stroke="#B29980" stroke-width="0.54755"/>
<rect x="5.15259" y="5.2478" width="21.3545" height="24.6398" rx="2.1902" fill="#F4A22B"/>
<path d="M20.2101 12.7766H11.9969C11.779 12.7766 11.5701 12.8631 11.4161 13.0172C11.2621 13.1712 11.1755 13.3801 11.1755 13.5979V16.4726C11.1755 19.1788 12.4856 20.8189 13.5846 21.7183C14.7683 22.6864 15.9459 23.0149 15.9972 23.0288C16.0678 23.048 16.1422 23.048 16.2128 23.0288C16.2642 23.0149 17.4402 22.6864 18.6255 21.7183C19.7214 20.8189 21.0314 19.1788 21.0314 16.4726V13.5979C21.0314 13.3801 20.9449 13.1712 20.7909 13.0172C20.6369 12.8631 20.4279 12.7766 20.2101 12.7766ZM18.4484 16.3525L15.5737 19.2271C15.5356 19.2653 15.4903 19.2956 15.4405 19.3162C15.3906 19.3369 15.3372 19.3475 15.2832 19.3475C15.2292 19.3475 15.1758 19.3369 15.1259 19.3162C15.0761 19.2956 15.0308 19.2653 14.9926 19.2271L13.7607 17.9951C13.6836 17.9181 13.6403 17.8135 13.6403 17.7046C13.6403 17.5956 13.6836 17.4911 13.7607 17.414C13.8377 17.337 13.9422 17.2937 14.0512 17.2937C14.1602 17.2937 14.2647 17.337 14.3417 17.414L15.2822 18.356L17.8663 15.7714C17.9044 15.7332 17.9497 15.7029 17.9996 15.6823C18.0494 15.6617 18.1028 15.651 18.1568 15.651C18.2108 15.651 18.2642 15.6617 18.314 15.6823C18.3639 15.7029 18.4092 15.7332 18.4473 15.7714C18.4855 15.8095 18.5158 15.8548 18.5364 15.9047C18.5571 15.9545 18.5677 16.008 18.5677 16.0619C18.5677 16.1159 18.5571 16.1693 18.5364 16.2192C18.5158 16.269 18.4855 16.3143 18.4473 16.3525H18.4484Z" fill="white"/>
<path d="M33.1484 18.0769C33.1484 18.5171 33.0712 18.8949 32.9168 19.2103C32.7624 19.5257 32.539 19.7671 32.2466 19.9347C31.9542 20.1022 31.6027 20.186 31.192 20.186C30.8865 20.186 30.6237 20.1466 30.4035 20.0677C30.1867 19.9856 30.0142 19.8969 29.8861 19.8016C29.7613 19.7064 29.6841 19.6357 29.6545 19.5897L30.1325 18.5253C30.1719 18.5811 30.2294 18.6469 30.305 18.7224C30.3805 18.7947 30.4775 18.8588 30.5957 18.9146C30.714 18.9672 30.8553 18.9935 31.0195 18.9935C31.2101 18.9935 31.3711 18.9524 31.5025 18.8703C31.6372 18.7881 31.739 18.6633 31.808 18.4957C31.8803 18.3249 31.9164 18.113 31.9164 17.86V13.5629H33.1484V18.0769ZM37.3948 20.0677V19.3631C37.3652 19.4353 37.2896 19.5372 37.1681 19.6686C37.0465 19.8 36.8823 19.9199 36.6753 20.0283C36.4716 20.1335 36.2318 20.186 35.9558 20.186C35.5681 20.186 35.2248 20.094 34.9259 19.9101C34.6269 19.7228 34.392 19.4682 34.2212 19.1462C34.0536 18.821 33.9698 18.4547 33.9698 18.0473C33.9698 17.6399 34.0536 17.2752 34.2212 16.9533C34.392 16.628 34.6269 16.3718 34.9259 16.1845C35.2248 15.9973 35.5681 15.9036 35.9558 15.9036C36.2252 15.9036 36.4585 15.9496 36.6556 16.0416C36.856 16.1303 37.017 16.2354 37.1385 16.357C37.2634 16.4753 37.3439 16.582 37.38 16.6773V16.0219H38.6218V20.0677H37.3948ZM35.1969 18.0473C35.1969 18.274 35.2478 18.4744 35.3497 18.6485C35.4515 18.8193 35.5862 18.9524 35.7538 19.0477C35.9213 19.1429 36.1036 19.1906 36.3008 19.1906C36.5077 19.1906 36.6917 19.1429 36.8527 19.0477C37.0137 18.9491 37.1402 18.8144 37.2322 18.6436C37.3274 18.4694 37.3751 18.2707 37.3751 18.0473C37.3751 17.8239 37.3274 17.6268 37.2322 17.4559C37.1402 17.2818 37.0137 17.1455 36.8527 17.0469C36.6917 16.9484 36.5077 16.8991 36.3008 16.8991C36.1036 16.8991 35.9213 16.9484 35.7538 17.0469C35.5862 17.1422 35.4515 17.2769 35.3497 17.451C35.2478 17.6218 35.1969 17.8206 35.1969 18.0473ZM41.6994 22.2311C41.4037 22.2311 41.1196 22.2032 40.8469 22.1473C40.5775 22.0915 40.3327 22.0044 40.1126 21.8862C39.8925 21.7679 39.7085 21.6135 39.5607 21.4229L40.3196 20.6542C40.3886 20.7429 40.4773 20.8316 40.5857 20.9203C40.6974 21.0123 40.8387 21.0878 41.0095 21.147C41.1803 21.2094 41.3939 21.2406 41.6501 21.2406C41.8932 21.2406 42.1019 21.193 42.276 21.0977C42.4534 21.0057 42.5897 20.8743 42.685 20.7035C42.7836 20.5326 42.8328 20.3339 42.8328 20.1072V19.9938H44.0599V20.1811C44.0599 20.6279 43.9548 21.0041 43.7445 21.3096C43.5343 21.6151 43.2517 21.8451 42.8969 21.9995C42.5421 22.1539 42.1429 22.2311 41.6994 22.2311ZM42.8328 20.0677V19.3631C42.8033 19.4353 42.7277 19.5372 42.6062 19.6686C42.4846 19.8 42.3203 19.9199 42.1134 20.0283C41.9097 20.1335 41.6698 20.186 41.3939 20.186C41.0062 20.186 40.6629 20.094 40.3639 19.9101C40.065 19.7228 39.8301 19.4682 39.6592 19.1462C39.4917 18.821 39.4079 18.4547 39.4079 18.0473C39.4079 17.6399 39.4917 17.2752 39.6592 16.9533C39.8301 16.628 40.065 16.3718 40.3639 16.1845C40.6629 15.9973 41.0062 15.9036 41.3939 15.9036C41.6633 15.9036 41.8965 15.9496 42.0937 16.0416C42.2941 16.1303 42.455 16.2354 42.5766 16.357C42.7014 16.4753 42.7819 16.582 42.8181 16.6773V16.0219H44.0599V20.0677H42.8328ZM40.635 18.0473C40.635 18.274 40.6859 18.4744 40.7877 18.6485C40.8896 18.8193 41.0243 18.9524 41.1918 19.0477C41.3594 19.1429 41.5417 19.1906 41.7388 19.1906C41.9458 19.1906 42.1298 19.1429 42.2908 19.0477C42.4518 18.9491 42.5782 18.8144 42.6702 18.6436C42.7655 18.4694 42.8131 18.2707 42.8131 18.0473C42.8131 17.8239 42.7655 17.6268 42.6702 17.4559C42.5782 17.2818 42.4518 17.1455 42.2908 17.0469C42.1298 16.9484 41.9458 16.8991 41.7388 16.8991C41.5417 16.8991 41.3594 16.9484 41.1918 17.0469C41.0243 17.1422 40.8896 17.2769 40.7877 17.451C40.6859 17.6218 40.635 17.8206 40.635 18.0473ZM48.2902 20.0677V19.3631C48.2606 19.4353 48.185 19.5372 48.0635 19.6686C47.9419 19.8 47.7777 19.9199 47.5707 20.0283C47.367 20.1335 47.1272 20.186 46.8512 20.186C46.4635 20.186 46.1202 20.094 45.8213 19.9101C45.5223 19.7228 45.2874 19.4682 45.1166 19.1462C44.949 18.821 44.8652 18.4547 44.8652 18.0473C44.8652 17.6399 44.949 17.2752 45.1166 16.9533C45.2874 16.628 45.5223 16.3718 45.8213 16.1845C46.1202 15.9973 46.4635 15.9036 46.8512 15.9036C47.1206 15.9036 47.3539 15.9496 47.551 16.0416C47.7514 16.1303 47.9124 16.2354 48.0339 16.357C48.1588 16.4753 48.2392 16.582 48.2754 16.6773V16.0219H49.5172V20.0677H48.2902ZM46.0923 18.0473C46.0923 18.274 46.1432 18.4744 46.2451 18.6485C46.3469 18.8193 46.4816 18.9524 46.6492 19.0477C46.8167 19.1429 46.999 19.1906 47.1962 19.1906C47.4031 19.1906 47.5871 19.1429 47.7481 19.0477C47.9091 18.9491 48.0356 18.8144 48.1275 18.6436C48.2228 18.4694 48.2705 18.2707 48.2705 18.0473C48.2705 17.8239 48.2228 17.6268 48.1275 17.4559C48.0356 17.2818 47.9091 17.1455 47.7481 17.0469C47.5871 16.9484 47.4031 16.8991 47.1962 16.8991C46.999 16.8991 46.8167 16.9484 46.6492 17.0469C46.4816 17.1422 46.3469 17.2769 46.2451 17.451C46.1432 17.6218 46.0923 17.8206 46.0923 18.0473ZM53.125 13.5629H55.1947C55.5594 13.5629 55.8994 13.6121 56.2148 13.7107C56.5302 13.8092 56.7848 13.9735 56.9786 14.2035C57.1757 14.4335 57.2743 14.7472 57.2743 15.1447C57.2743 15.4108 57.2234 15.649 57.1215 15.8593C57.0197 16.0695 56.8899 16.242 56.7322 16.3767C56.5745 16.5081 56.4086 16.5919 56.2345 16.628C56.3823 16.6445 56.5335 16.6888 56.6879 16.7611C56.8423 16.8334 56.9852 16.9336 57.1166 17.0617C57.248 17.1898 57.3531 17.3508 57.432 17.5446C57.5141 17.7385 57.5552 17.9652 57.5552 18.2247C57.5552 18.5861 57.4763 18.9064 57.3186 19.1856C57.1642 19.4616 56.9343 19.6784 56.6287 19.8361C56.3265 19.9905 55.9503 20.0677 55.5002 20.0677H53.125V13.5629ZM54.3569 19.0723H55.2489C55.4986 19.0723 55.6973 19.0312 55.8452 18.9491C55.9963 18.867 56.1047 18.7553 56.1704 18.614C56.2361 18.4727 56.269 18.3118 56.269 18.1311C56.269 17.842 56.177 17.6202 55.993 17.4658C55.809 17.3114 55.5479 17.2342 55.2095 17.2342H54.3569V19.0723ZM54.3569 16.2584H55.1405C55.3442 16.2584 55.5117 16.219 55.6431 16.1402C55.7778 16.058 55.8797 15.9496 55.9487 15.8149C56.0177 15.6769 56.0522 15.5275 56.0522 15.3665C56.0522 15.0577 55.9618 14.8458 55.7811 14.7308C55.6037 14.6158 55.3622 14.5583 55.0567 14.5583H54.3569V16.2584ZM59.6873 17.9586C59.6873 18.32 59.7596 18.6091 59.9041 18.8259C60.0487 19.0394 60.2819 19.1462 60.6039 19.1462C60.9291 19.1462 61.164 19.0394 61.3086 18.8259C61.4531 18.6091 61.5254 18.32 61.5254 17.9586V16.0219H62.7574V18.1015C62.7574 18.5187 62.6736 18.885 62.5061 19.2004C62.3385 19.5125 62.0938 19.7556 61.7718 19.9298C61.4531 20.1006 61.0638 20.186 60.6039 20.186C60.1472 20.186 59.7579 20.1006 59.436 19.9298C59.1173 19.7556 58.8742 19.5125 58.7066 19.2004C58.5391 18.885 58.4553 18.5187 58.4553 18.1015V16.0219H59.6873V17.9586ZM65.5238 20.186C65.1394 20.186 64.801 20.094 64.5086 19.9101C64.2195 19.7228 63.9928 19.4682 63.8285 19.1462C63.6676 18.821 63.5871 18.4547 63.5871 18.0473C63.5871 17.6399 63.6676 17.2752 63.8285 16.9533C63.9928 16.628 64.2195 16.3718 64.5086 16.1845C64.801 15.9973 65.1394 15.9036 65.5238 15.9036C65.7964 15.9036 66.0379 15.948 66.2482 16.0367C66.4617 16.1254 66.6325 16.2305 66.7607 16.3521C66.8888 16.4736 66.9644 16.582 66.9874 16.6773V13.2869H68.244V20.0677H67.0021V19.3631C66.9496 19.478 66.8527 19.5996 66.7114 19.7277C66.5701 19.8558 66.3976 19.9643 66.194 20.053C65.9903 20.1417 65.7669 20.186 65.5238 20.186ZM65.8786 19.1906C66.0888 19.1906 66.2777 19.1429 66.4453 19.0477C66.6128 18.9491 66.7442 18.8144 66.8395 18.6436C66.9381 18.4694 66.9874 18.2707 66.9874 18.0473C66.9874 17.8239 66.9381 17.6268 66.8395 17.4559C66.7442 17.2818 66.6128 17.1455 66.4453 17.0469C66.2777 16.9484 66.0888 16.8991 65.8786 16.8991C65.6847 16.8991 65.5073 16.9484 65.3464 17.0469C65.1854 17.1422 65.0556 17.2769 64.957 17.451C64.8618 17.6218 64.8141 17.8206 64.8141 18.0473C64.8141 18.274 64.8618 18.4744 64.957 18.6485C65.0556 18.8193 65.1854 18.9524 65.3464 19.0477C65.5073 19.1429 65.6847 19.1906 65.8786 19.1906ZM72.3236 20.0677V19.3631C72.294 19.4353 72.2184 19.5372 72.0969 19.6686C71.9753 19.8 71.8111 19.9199 71.6041 20.0283C71.4004 20.1335 71.1606 20.186 70.8846 20.186C70.4969 20.186 70.1536 20.094 69.8547 19.9101C69.5557 19.7228 69.3208 19.4682 69.15 19.1462C68.9824 18.821 68.8986 18.4547 68.8986 18.0473C68.8986 17.6399 68.9824 17.2752 69.15 16.9533C69.3208 16.628 69.5557 16.3718 69.8547 16.1845C70.1536 15.9973 70.4969 15.9036 70.8846 15.9036C71.154 15.9036 71.3873 15.9496 71.5844 16.0416C71.7848 16.1303 71.9458 16.2354 72.0673 16.357C72.1922 16.4753 72.2726 16.582 72.3088 16.6773V16.0219H73.5506V20.0677H72.3236ZM70.1257 18.0473C70.1257 18.274 70.1766 18.4744 70.2785 18.6485C70.3803 18.8193 70.515 18.9524 70.6826 19.0477C70.8501 19.1429 71.0324 19.1906 71.2296 19.1906C71.4365 19.1906 71.6205 19.1429 71.7815 19.0477C71.9425 18.9491 72.069 18.8144 72.1609 18.6436C72.2562 18.4694 72.3039 18.2707 72.3039 18.0473C72.3039 17.8239 72.2562 17.6268 72.1609 17.4559C72.069 17.2818 71.9425 17.1455 71.7815 17.0469C71.6205 16.9484 71.4365 16.8991 71.2296 16.8991C71.0324 16.8991 70.8501 16.9484 70.6826 17.0469C70.515 17.1422 70.3803 17.2769 70.2785 17.451C70.1766 17.6218 70.1257 17.8206 70.1257 18.0473ZM76.4804 18.9688L77.6779 16.0219H78.9148L76.1502 22.1178H74.8936L75.825 20.0677L74.1445 16.0219H75.3962L76.4804 18.9688ZM82.6318 20.0677V19.3631C82.6023 19.4353 82.5267 19.5372 82.4052 19.6686C82.2836 19.8 82.1193 19.9199 81.9124 20.0283C81.7087 20.1335 81.4688 20.186 81.1929 20.186C80.8052 20.186 80.4619 20.094 80.1629 19.9101C79.864 19.7228 79.6291 19.4682 79.4582 19.1462C79.2907 18.821 79.2069 18.4547 79.2069 18.0473C79.2069 17.6399 79.2907 17.2752 79.4582 16.9533C79.6291 16.628 79.864 16.3718 80.1629 16.1845C80.4619 15.9973 80.8052 15.9036 81.1929 15.9036C81.4623 15.9036 81.6955 15.9496 81.8927 16.0416C82.0931 16.1303 82.254 16.2354 82.3756 16.357C82.5004 16.4753 82.5809 16.582 82.6171 16.6773V16.0219H83.8589V20.0677H82.6318ZM80.434 18.0473C80.434 18.274 80.4849 18.4744 80.5867 18.6485C80.6886 18.8193 80.8233 18.9524 80.9908 19.0477C81.1584 19.1429 81.3407 19.1906 81.5378 19.1906C81.7448 19.1906 81.9288 19.1429 82.0898 19.0477C82.2507 18.9491 82.3772 18.8144 82.4692 18.6436C82.5645 18.4694 82.6121 18.2707 82.6121 18.0473C82.6121 17.8239 82.5645 17.6268 82.4692 17.4559C82.3772 17.2818 82.2507 17.1455 82.0898 17.0469C81.9288 16.9484 81.7448 16.8991 81.5378 16.8991C81.3407 16.8991 81.1584 16.9484 80.9908 17.0469C80.8233 17.1422 80.6886 17.2769 80.5867 17.451C80.4849 17.6218 80.434 17.8206 80.434 18.0473Z" fill="#404040"/>
<defs>
<linearGradient id="paint0_linear_3267_6003" x1="0.772217" y1="17.5677" x2="102.069" y2="17.5677" gradientUnits="userSpaceOnUse">
<stop stop-color="#EEB378" stop-opacity="0.8"/>
<stop offset="1" stop-color="#F2D6B9" stop-opacity="0.4"/>
</linearGradient>
</defs>
</svg>
