<svg width="48" height="49" viewBox="0 0 48 49" fill="none" xmlns="http://www.w3.org/2000/svg">
<path d="M40.579 26.3411V29.6251C40.579 32.9789 37.8601 35.6978 34.5062 35.6978H32.2628C30.5449 35.6978 29.1522 37.0904 29.1522 38.8083C29.1522 40.5262 30.5449 41.9189 32.2628 41.9189H34.5054C41.2956 41.9189 46.8001 36.4144 46.8001 29.6242V26.3411V14.3683V10.1921C46.8001 8.47419 45.4074 7.08154 43.6895 7.08154H30.651C28.9331 7.08154 27.5405 8.47419 27.5405 10.1921V23.2306C27.5405 24.9485 28.9331 26.3411 30.651 26.3411H40.579Z" fill="#B29980"/>
<path d="M14.2385 26.3411V29.6251C14.2385 32.9789 11.5197 35.6978 8.16579 35.6978H5.92234C4.20442 35.6978 2.81178 37.0904 2.81178 38.8083C2.81178 40.5262 4.20442 41.9189 5.92234 41.9189H8.16492C14.9551 41.9189 20.4596 36.4144 20.4596 29.6242V26.3411V14.3683V10.1921C20.4596 8.47419 19.067 7.08154 17.3491 7.08154H4.31057C2.59266 7.08154 1.20001 8.47419 1.20001 10.1921V23.2306C1.20001 24.9485 2.59266 26.3411 4.31057 26.3411H14.2385Z" fill="#B29980"/>
</svg>
