<svg width="20" height="23" viewBox="0 0 20 23" fill="none" xmlns="http://www.w3.org/2000/svg">
<g clip-path="url(#clip0_3195_6627)">
<path d="M14.733 8.68799C16.1131 9.67407 17.8039 10.2543 19.63 10.2543V6.7422C19.2844 6.74227 18.9397 6.70621 18.6016 6.63461V9.39912C16.7756 9.39912 15.0851 8.819 13.7046 7.83299V15.0002C13.7046 18.5856 10.7966 21.4919 7.20956 21.4919C5.87116 21.4919 4.62712 21.0875 3.59375 20.3939C4.77321 21.5993 6.41804 22.347 8.23769 22.347C11.825 22.347 14.7331 19.4407 14.7331 15.8551V8.68799H14.733ZM16.0017 5.14473C15.2963 4.37456 14.8332 3.37924 14.733 2.27885V1.82715H13.7584C14.0038 3.2257 14.8406 4.42052 16.0017 5.14473ZM5.86252 17.6426C5.46845 17.1262 5.25543 16.4944 5.25639 15.8448C5.25639 14.205 6.58651 12.8754 8.22757 12.8754C8.53335 12.8753 8.83733 12.9222 9.12882 13.0146V9.42395C8.78818 9.37732 8.44444 9.35744 8.10084 9.36476V12.1595C7.80921 12.0671 7.50507 12.0201 7.19914 12.0204C5.55816 12.0204 4.22811 13.3499 4.22811 14.9899C4.22811 16.1496 4.89291 17.1535 5.86252 17.6426Z" fill="#FF004F"/>
<path d="M13.7049 7.83291C15.0855 8.81892 16.7759 9.39904 18.6019 9.39904V6.63454C17.5826 6.41752 16.6803 5.8852 16.0019 5.14473C14.8407 4.42045 14.0041 3.22562 13.7587 1.82715H11.1989V15.855C11.1931 17.4903 9.86524 18.8145 8.22772 18.8145C7.26285 18.8145 6.40556 18.3548 5.86267 17.6425C4.89322 17.1535 4.22834 16.1495 4.22834 14.99C4.22834 13.3501 5.55839 12.0205 7.19937 12.0205C7.51378 12.0205 7.81681 12.0694 8.10107 12.1596V9.36483C4.57703 9.43762 1.74292 12.3155 1.74292 15.855C1.74292 17.6219 2.44866 19.2237 3.59413 20.394C4.6275 21.0875 5.87147 21.4921 7.20994 21.4921C10.797 21.4921 13.705 18.5855 13.705 15.0002V7.83299L13.7049 7.83291Z" fill="black"/>
<path d="M18.6017 6.63497V5.88763C17.6825 5.88902 16.7815 5.63176 16.0017 5.14524C16.692 5.90057 17.601 6.42145 18.6017 6.63512V6.63497ZM13.7584 1.82758C13.7351 1.69396 13.7171 1.55944 13.7047 1.42436V0.972656H10.1701V15.0006C10.1645 16.6358 8.83667 17.96 7.19908 17.96C6.73484 17.9607 6.27695 17.8521 5.86238 17.6432C6.40527 18.3553 7.26256 18.8149 8.22743 18.8149C9.86487 18.8149 11.1929 17.4909 11.1986 15.8555V1.82766H13.7584V1.82758ZM8.10101 9.36527V8.56953C7.80566 8.52916 7.5079 8.50896 7.2098 8.50908C3.62236 8.50908 0.714355 11.4155 0.714355 15.0006C0.714355 17.2483 1.85724 19.2292 3.59399 20.3944C2.44852 19.2241 1.74278 17.6223 1.74278 15.8555C1.74278 12.3161 4.57682 9.43805 8.10101 9.36527Z" fill="#00F2EA"/>
</g>
<defs>
<clipPath id="clip0_3195_6627">
<rect width="18.9163" height="21.4286" fill="white" transform="translate(0.714355 0.972656)"/>
</clipPath>
</defs>
</svg>
