<svg width="36" height="35" viewBox="0 0 36 35" fill="none" xmlns="http://www.w3.org/2000/svg">
<path d="M30.7304 19.9736C30.7304 26.833 26.1563 32.3255 20.8 33.7857C24.7751 31.0448 25.2594 27.8913 24.2046 24.5585C23.6773 25.8894 23.0638 27.1523 21.7938 27.8841C22.0593 24.0598 17.3739 20.77 17.4672 16.2066C14.3425 18.6103 13.6536 22.5961 15.6878 27.5074C14.425 27.2958 12.3262 25.5953 12.3083 23.6831C10.3854 27.0052 10.493 30.4421 13.3451 33.1076C8.82838 31.0161 5.26953 26.0258 5.26953 19.9736C5.26953 16.9923 6.13412 14.072 7.5548 11.5787C7.93508 13.5339 8.98982 15.2523 10.4715 16.4649C10.267 15.5716 10.1629 14.6389 10.1629 13.6846C10.1629 7.49964 14.5864 2.34432 20.4449 1.21423C17.2842 7.77948 25.3562 14.212 26.124 19.8982C27.5052 18.1403 28.3267 15.9232 28.3267 13.516C28.3267 12.5617 28.1976 11.6361 27.95 10.7571C29.6613 13.4191 30.7304 16.6622 30.7304 19.9736Z" fill="white"/>
</svg>
