<svg width="102" height="35" viewBox="0 0 102 35" fill="none" xmlns="http://www.w3.org/2000/svg">
<rect x="0.553072" y="1.1268" width="100.749" height="32.853" rx="4.10663" fill="url(#paint0_linear_3267_6012)"/>
<rect x="0.553072" y="1.1268" width="100.749" height="32.853" rx="4.10663" stroke="#B29980" stroke-width="0.54755"/>
<path d="M12.4847 16.4559H15.7864V16.8452C15.7864 17.3085 15.7076 17.7421 15.5499 18.1462C15.3955 18.547 15.1737 18.9002 14.8846 19.2057C14.5955 19.508 14.2522 19.7445 13.8546 19.9154C13.4604 20.0862 13.0251 20.1716 12.5487 20.1716C12.0592 20.1716 11.6124 20.0846 11.2083 19.9104C10.8042 19.7363 10.456 19.4948 10.1636 19.186C9.87122 18.8772 9.64453 18.5191 9.48355 18.1117C9.32586 17.7011 9.24701 17.2625 9.24701 16.796C9.24701 16.3327 9.32586 15.8974 9.48355 15.4901C9.64453 15.0794 9.87122 14.7213 10.1636 14.4158C10.456 14.1069 10.8042 13.8655 11.2083 13.6914C11.6124 13.5172 12.0592 13.4302 12.5487 13.4302C12.9266 13.4302 13.2633 13.4712 13.559 13.5534C13.8546 13.6355 14.1125 13.7472 14.3327 13.8885C14.5561 14.0265 14.7483 14.1809 14.9092 14.3517C15.0735 14.5193 15.2098 14.6884 15.3183 14.8593L14.1651 15.4211C14.0074 15.1911 13.7972 14.994 13.5343 14.8297C13.2748 14.6654 12.9463 14.5833 12.5487 14.5833C12.2531 14.5833 11.9804 14.6425 11.7307 14.7607C11.4843 14.8757 11.2708 15.035 11.0901 15.2387C10.9127 15.4424 10.7747 15.679 10.6761 15.9484C10.5776 16.2145 10.5283 16.497 10.5283 16.796C10.5283 17.0982 10.5776 17.3824 10.6761 17.6485C10.7747 17.9146 10.9127 18.1512 11.0901 18.3581C11.2708 18.5618 11.4843 18.7212 11.7307 18.8361C11.9804 18.9511 12.2531 19.0086 12.5487 19.0086C12.8181 19.0086 13.0629 18.9692 13.283 18.8903C13.5031 18.8115 13.6937 18.6998 13.8546 18.5552C14.0189 18.4107 14.1487 18.2415 14.244 18.0477C14.3392 17.8505 14.3934 17.6386 14.4066 17.412H12.4847V16.4559ZM18.6596 20.1716C18.2292 20.1716 17.8448 20.0796 17.5064 19.8957C17.1713 19.7117 16.9085 19.4603 16.7179 19.1417C16.5274 18.8197 16.4321 18.4534 16.4321 18.0427C16.4321 17.6321 16.5274 17.2658 16.7179 16.9438C16.9085 16.6186 17.1713 16.3623 17.5064 16.175C17.8448 15.9845 18.2292 15.8892 18.6596 15.8892C19.0932 15.8892 19.476 15.9845 19.8078 16.175C20.1396 16.3623 20.3991 16.6186 20.5864 16.9438C20.7736 17.2658 20.8673 17.6321 20.8673 18.0427C20.8673 18.4534 20.7736 18.8197 20.5864 19.1417C20.3991 19.4603 20.1396 19.7117 19.8078 19.8957C19.476 20.0796 19.0932 20.1716 18.6596 20.1716ZM18.6596 19.1318C18.8665 19.1318 19.0456 19.0858 19.1967 18.9938C19.3511 18.8986 19.4694 18.7688 19.5515 18.6045C19.6369 18.437 19.6796 18.2481 19.6796 18.0378C19.6796 17.8276 19.6369 17.6386 19.5515 17.4711C19.4694 17.3035 19.3511 17.1721 19.1967 17.0769C19.0456 16.9783 18.8665 16.929 18.6596 16.929C18.4526 16.929 18.2719 16.9783 18.1175 17.0769C17.9664 17.1721 17.8481 17.3035 17.7627 17.4711C17.6773 17.6386 17.6345 17.8276 17.6345 18.0378C17.6345 18.2481 17.6773 18.437 17.7627 18.6045C17.8481 18.7688 17.9664 18.8986 18.1175 18.9938C18.2719 19.0858 18.4526 19.1318 18.6596 19.1318ZM23.6934 20.1716C23.263 20.1716 22.8786 20.0796 22.5402 19.8957C22.2051 19.7117 21.9423 19.4603 21.7518 19.1417C21.5612 18.8197 21.466 18.4534 21.466 18.0427C21.466 17.6321 21.5612 17.2658 21.7518 16.9438C21.9423 16.6186 22.2051 16.3623 22.5402 16.175C22.8786 15.9845 23.263 15.8892 23.6934 15.8892C24.127 15.8892 24.5098 15.9845 24.8416 16.175C25.1734 16.3623 25.433 16.6186 25.6202 16.9438C25.8075 17.2658 25.9011 17.6321 25.9011 18.0427C25.9011 18.4534 25.8075 18.8197 25.6202 19.1417C25.433 19.4603 25.1734 19.7117 24.8416 19.8957C24.5098 20.0796 24.127 20.1716 23.6934 20.1716ZM23.6934 19.1318C23.9004 19.1318 24.0794 19.0858 24.2305 18.9938C24.3849 18.8986 24.5032 18.7688 24.5853 18.6045C24.6708 18.437 24.7135 18.2481 24.7135 18.0378C24.7135 17.8276 24.6708 17.6386 24.5853 17.4711C24.5032 17.3035 24.3849 17.1721 24.2305 17.0769C24.0794 16.9783 23.9004 16.929 23.6934 16.929C23.4864 16.929 23.3057 16.9783 23.1513 17.0769C23.0002 17.1721 22.8819 17.3035 22.7965 17.4711C22.7111 17.6386 22.6684 17.8276 22.6684 18.0378C22.6684 18.2481 22.7111 18.437 22.7965 18.6045C22.8819 18.7688 23.0002 18.8986 23.1513 18.9938C23.3057 19.0858 23.4864 19.1318 23.6934 19.1318ZM28.4956 20.1716C28.1112 20.1716 27.7728 20.0796 27.4804 19.8957C27.1913 19.7084 26.9646 19.4538 26.8004 19.1318C26.6394 18.8066 26.5589 18.4403 26.5589 18.0329C26.5589 17.6255 26.6394 17.2608 26.8004 16.9389C26.9646 16.6136 27.1913 16.3574 27.4804 16.1701C27.7728 15.9829 28.1112 15.8892 28.4956 15.8892C28.7683 15.8892 29.0097 15.9336 29.22 16.0223C29.4336 16.111 29.6044 16.2161 29.7325 16.3377C29.8606 16.4592 29.9362 16.5676 29.9592 16.6629V13.2725H31.2158V20.0533H29.974V19.3486C29.9214 19.4636 29.8245 19.5852 29.6832 19.7133C29.542 19.8414 29.3695 19.9499 29.1658 20.0386C28.9621 20.1273 28.7387 20.1716 28.4956 20.1716ZM28.8504 19.1762C29.0607 19.1762 29.2496 19.1285 29.4171 19.0333C29.5847 18.9347 29.7161 18.8 29.8114 18.6292C29.9099 18.455 29.9592 18.2563 29.9592 18.0329C29.9592 17.8095 29.9099 17.6124 29.8114 17.4415C29.7161 17.2674 29.5847 17.1311 29.4171 17.0325C29.2496 16.934 29.0607 16.8847 28.8504 16.8847C28.6566 16.8847 28.4792 16.934 28.3182 17.0325C28.1572 17.1278 28.0274 17.2625 27.9289 17.4366C27.8336 17.6074 27.786 17.8062 27.786 18.0329C27.786 18.2596 27.8336 18.46 27.9289 18.6341C28.0274 18.8049 28.1572 18.938 28.3182 19.0333C28.4792 19.1285 28.6566 19.1762 28.8504 19.1762ZM39.4821 20.3047C39.6693 20.3047 39.8353 20.2817 39.9798 20.2357C40.1276 20.193 40.2459 20.147 40.3346 20.0977C40.4233 20.0517 40.4742 20.0205 40.4874 20.0041L40.926 20.832C40.834 20.9699 40.6664 21.1063 40.4233 21.241C40.1802 21.3757 39.8681 21.443 39.487 21.443C39.2505 21.443 39.0484 21.4151 38.8809 21.3593C38.7133 21.3067 38.5573 21.2443 38.4127 21.172C38.2715 21.103 38.1187 21.0406 37.9544 20.9847C37.7902 20.9322 37.593 20.9059 37.3631 20.9059C37.1594 20.9059 36.9803 20.9387 36.8259 21.0044C36.6715 21.0701 36.5483 21.1359 36.4563 21.2016C36.3676 21.2673 36.32 21.3067 36.3134 21.3198L35.7812 20.6989C35.9882 20.4821 36.2444 20.303 36.55 20.1618C36.8588 20.0238 37.2119 19.9548 37.6095 19.9548C37.8756 19.9548 38.1088 19.9844 38.3092 20.0435C38.5096 20.1026 38.7018 20.1601 38.8858 20.216C39.0698 20.2751 39.2685 20.3047 39.4821 20.3047ZM35.6974 16.796C35.6974 17.2099 35.7828 17.5844 35.9537 17.9195C36.1278 18.2546 36.366 18.5208 36.6682 18.7179C36.9705 18.9117 37.3204 19.0086 37.7179 19.0086C38.1154 19.0086 38.4653 18.9117 38.7675 18.7179C39.0731 18.5208 39.3112 18.2546 39.4821 17.9195C39.6529 17.5844 39.7383 17.2099 39.7383 16.796C39.7383 16.382 39.6529 16.0091 39.4821 15.6773C39.3112 15.3422 39.0731 15.0761 38.7675 14.879C38.4653 14.6819 38.1154 14.5833 37.7179 14.5833C37.3204 14.5833 36.9705 14.6819 36.6682 14.879C36.366 15.0761 36.1278 15.3422 35.9537 15.6773C35.7828 16.0091 35.6974 16.382 35.6974 16.796ZM34.4161 16.796C34.4161 16.3229 34.4983 15.8827 34.6625 15.4753C34.8301 15.0646 35.0634 14.7065 35.3623 14.401C35.6613 14.0954 36.0112 13.8573 36.412 13.6864C36.8161 13.5156 37.2514 13.4302 37.7179 13.4302C38.191 13.4302 38.6279 13.5156 39.0287 13.6864C39.4295 13.8573 39.7778 14.0954 40.0734 14.401C40.3724 14.7065 40.604 15.0646 40.7683 15.4753C40.9325 15.8827 41.0147 16.3229 41.0147 16.796C41.0147 17.2723 40.9342 17.7159 40.7732 18.1265C40.6122 18.5339 40.3839 18.892 40.0882 19.2008C39.7925 19.5063 39.4443 19.7445 39.0435 19.9154C38.6427 20.0862 38.2008 20.1716 37.7179 20.1716C37.2284 20.1716 36.7816 20.0862 36.3775 19.9154C35.9767 19.7445 35.6284 19.5063 35.3327 19.2008C35.0404 18.892 34.8137 18.5339 34.6527 18.1265C34.495 17.7159 34.4161 17.2723 34.4161 16.796ZM42.9581 17.9442C42.9581 18.3056 43.0303 18.5947 43.1749 18.8115C43.3194 19.025 43.5527 19.1318 43.8747 19.1318C44.1999 19.1318 44.4348 19.025 44.5794 18.8115C44.7239 18.5947 44.7962 18.3056 44.7962 17.9442V16.0075H46.0282V18.0871C46.0282 18.5043 45.9444 18.8706 45.7769 19.186C45.6093 19.4981 45.3645 19.7412 45.0426 19.9154C44.7239 20.0862 44.3346 20.1716 43.8747 20.1716C43.418 20.1716 43.0287 20.0862 42.7067 19.9154C42.3881 19.7412 42.145 19.4981 41.9774 19.186C41.8099 18.8706 41.7261 18.5043 41.7261 18.0871V16.0075H42.9581V17.9442ZM50.2236 20.0533V19.3486C50.1941 19.4209 50.1185 19.5228 49.997 19.6542C49.8754 19.7856 49.7111 19.9055 49.5042 20.0139C49.3005 20.1191 49.0606 20.1716 48.7847 20.1716C48.397 20.1716 48.0537 20.0796 47.7547 19.8957C47.4558 19.7084 47.2209 19.4538 47.05 19.1318C46.8825 18.8066 46.7987 18.4403 46.7987 18.0329C46.7987 17.6255 46.8825 17.2608 47.05 16.9389C47.2209 16.6136 47.4558 16.3574 47.7547 16.1701C48.0537 15.9829 48.397 15.8892 48.7847 15.8892C49.0541 15.8892 49.2873 15.9352 49.4844 16.0272C49.6848 16.1159 49.8458 16.221 49.9674 16.3426C50.0922 16.4609 50.1727 16.5676 50.2089 16.6629V16.0075H51.4507V20.0533H50.2236ZM48.0258 18.0329C48.0258 18.2596 48.0767 18.46 48.1785 18.6341C48.2804 18.8049 48.4151 18.938 48.5826 19.0333C48.7502 19.1285 48.9325 19.1762 49.1296 19.1762C49.3366 19.1762 49.5206 19.1285 49.6816 19.0333C49.8425 18.9347 49.969 18.8 50.061 18.6292C50.1563 18.455 50.2039 18.2563 50.2039 18.0329C50.2039 17.8095 50.1563 17.6124 50.061 17.4415C49.969 17.2674 49.8425 17.1311 49.6816 17.0325C49.5206 16.934 49.3366 16.8847 49.1296 16.8847C48.9325 16.8847 48.7502 16.934 48.5826 17.0325C48.4151 17.1278 48.2804 17.2625 48.1785 17.4366C48.0767 17.6074 48.0258 17.8062 48.0258 18.0329ZM53.7447 20.0533H52.4881V13.2725H53.7447V20.0533ZM54.8765 20.0533V16.0075H56.1232V20.0533H54.8765ZM55.5171 14.9628C55.3101 14.9628 55.1344 14.8905 54.9898 14.7459C54.8485 14.6014 54.7779 14.4289 54.7779 14.2285C54.7779 14.0281 54.8502 13.854 54.9947 13.7061C55.1393 13.5583 55.3134 13.4844 55.5171 13.4844C55.6518 13.4844 55.775 13.5189 55.8867 13.5879C55.9984 13.6536 56.0888 13.7423 56.1577 13.854C56.2267 13.9657 56.2612 14.0905 56.2612 14.2285C56.2612 14.4289 56.1873 14.6014 56.0395 14.7459C55.8949 14.8905 55.7208 14.9628 55.5171 14.9628ZM56.9169 16.0075H57.6462V14.3468H58.8881V16.0075H59.8441V17.0473H58.8881V18.5109C58.8881 18.7047 58.9193 18.8559 58.9817 18.9643C59.0441 19.0694 59.1427 19.122 59.2774 19.122C59.3792 19.122 59.463 19.1022 59.5287 19.0628C59.5944 19.0201 59.6338 18.9905 59.647 18.9741L60.0905 19.871C60.0708 19.8907 60.0067 19.9252 59.8983 19.9745C59.7932 20.0238 59.6568 20.0681 59.4893 20.1076C59.325 20.1503 59.1394 20.1716 58.9324 20.1716C58.5612 20.1716 58.254 20.0648 58.0109 19.8513C57.7678 19.6345 57.6462 19.2994 57.6462 18.846V17.0473H56.9169V16.0075ZM62.6194 18.9544L63.8169 16.0075H65.0538L62.2892 22.1034H61.0326L61.9639 20.0533L60.2835 16.0075H61.5352L62.6194 18.9544Z" fill="#404040"/>
<rect x="75.8413" y="5.2334" width="21.3545" height="24.6398" rx="2.1902" fill="#F4A22B"/>
<path d="M92.2335 14.8217C92.1179 14.6907 91.9757 14.5858 91.8164 14.5139C91.6571 14.442 91.4843 14.4049 91.3095 14.4049H88.4349V13.5836C88.4349 13.039 88.2186 12.5167 87.8335 12.1317C87.4484 11.7466 86.9262 11.5303 86.3816 11.5303C86.3053 11.5302 86.2305 11.5514 86.1656 11.5915C86.1007 11.6316 86.0482 11.6889 86.014 11.7572L84.0747 15.6369H81.8643C81.6465 15.6369 81.4376 15.7234 81.2835 15.8775C81.1295 16.0315 81.043 16.2404 81.043 16.4582V20.9755C81.043 21.1933 81.1295 21.4023 81.2835 21.5563C81.4376 21.7103 81.6465 21.7968 81.8643 21.7968H90.6935C90.9937 21.7969 91.2835 21.6875 91.5087 21.489C91.7338 21.2905 91.8788 21.0166 91.9163 20.7189L92.5323 15.7909C92.5541 15.6174 92.5388 15.4413 92.4873 15.2742C92.4357 15.107 92.3493 14.9528 92.2335 14.8217ZM81.8643 16.4582H83.9176V20.9755H81.8643V16.4582Z" fill="white"/>
<defs>
<linearGradient id="paint0_linear_3267_6012" x1="0.279297" y1="17.5533" x2="101.576" y2="17.5533" gradientUnits="userSpaceOnUse">
<stop stop-color="#EEB378" stop-opacity="0.8"/>
<stop offset="1" stop-color="#F2D6B9" stop-opacity="0.4"/>
</linearGradient>
</defs>
</svg>
