<svg width="16" height="17" viewBox="0 0 16 17" fill="none" xmlns="http://www.w3.org/2000/svg">
<path d="M14.6431 8.05949L11.8306 10.4864L12.6875 14.1157C12.7347 14.3128 12.7226 14.5194 12.6525 14.7095C12.5824 14.8996 12.4575 15.0647 12.2937 15.1838C12.1298 15.303 11.9343 15.371 11.7319 15.3791C11.5294 15.3872 11.3291 15.3352 11.1562 15.2295L7.99996 13.287L4.84184 15.2295C4.66898 15.3346 4.4689 15.3861 4.2668 15.3777C4.06469 15.3693 3.8696 15.3012 3.70609 15.1821C3.54257 15.0631 3.41795 14.8983 3.3479 14.7085C3.27786 14.5187 3.26553 14.3125 3.31246 14.1157L4.17246 10.4864L1.35996 8.05949C1.20702 7.92731 1.09641 7.753 1.04195 7.55833C0.987486 7.36367 0.99158 7.15727 1.05372 6.96491C1.11586 6.77256 1.23329 6.60277 1.39135 6.47676C1.54941 6.35075 1.7411 6.27409 1.94246 6.25637L5.62996 5.95887L7.05246 2.51637C7.12946 2.32875 7.26051 2.16827 7.42894 2.05533C7.59738 1.94239 7.7956 1.88208 7.9984 1.88208C8.2012 1.88208 8.39942 1.94239 8.56785 2.05533C8.73629 2.16827 8.86734 2.32875 8.94434 2.51637L10.3662 5.95887L14.0537 6.25637C14.2555 6.27343 14.4477 6.34966 14.6064 6.4755C14.765 6.60134 14.883 6.77119 14.9455 6.96378C15.008 7.15637 15.0123 7.36312 14.9579 7.55815C14.9034 7.75317 14.7926 7.92779 14.6393 8.06012L14.6431 8.05949Z" fill="#F4A22B"/>
</svg>
