<svg width="26" height="27" viewBox="0 0 26 27" fill="none" xmlns="http://www.w3.org/2000/svg">
<path d="M11.9287 16.6328C11.1889 16.6328 10.5894 17.2324 10.5894 17.9721C10.5894 18.7118 11.1889 19.3114 11.9287 19.3114C12.6683 19.3114 13.2679 18.7118 13.2679 17.9721C13.2679 17.2324 12.6683 16.6328 11.9287 16.6328Z" fill="#272626"/>
<path fill-rule="evenodd" clip-rule="evenodd" d="M8.98232 7.2737C8.98223 7.26839 8.98217 7.26308 8.98217 7.25774V6.18631C8.98217 3.96731 10.781 2.16846 13 2.16846C15.2191 2.16846 17.0179 3.96731 17.0179 6.18631V7.25774C17.0179 7.26308 17.0179 7.26839 17.0178 7.27371C18.3969 7.3151 19.2409 7.46389 19.8851 7.9986C20.7779 8.73947 21.0129 9.99352 21.4833 12.5016L22.2869 16.7873C22.9481 20.3142 23.2787 22.0775 22.3147 23.2391C21.3507 24.4006 19.5566 24.4006 15.9683 24.4006H10.0317C6.4434 24.4006 4.64926 24.4006 3.68529 23.2391C2.7213 22.0775 3.05195 20.3142 3.71322 16.7873L4.51679 12.5016C4.98705 9.99352 5.22219 8.73947 6.11488 7.9986C6.75918 7.46387 7.60312 7.3151 8.98232 7.2737ZM10.5893 6.18631C10.5893 4.85491 11.6687 3.7756 13 3.7756C14.3314 3.7756 15.4107 4.85491 15.4107 6.18631V7.25774C15.4107 7.25775 15.4107 7.25773 15.4107 7.25774C15.3301 7.25772 15.2481 7.25774 15.1647 7.25774H10.8353C10.7519 7.25774 10.67 7.25774 10.5893 7.25776V6.18631ZM14.875 11.5435C14.875 11.0997 14.5152 10.7399 14.0715 10.7399C13.6277 10.7399 13.2679 11.0997 13.2679 11.5435V15.3469C12.866 15.1414 12.4109 15.0256 11.9286 15.0256C10.3013 15.0256 8.98215 16.3447 8.98215 17.972C8.98215 19.5993 10.3013 20.9185 11.9286 20.9185C13.5559 20.9185 14.875 19.5993 14.875 17.972V14.1686C15.2768 14.3741 15.7321 14.4899 16.2143 14.4899C16.6581 14.4899 17.0179 14.1301 17.0179 13.6863C17.0179 13.2425 16.6581 12.8827 16.2143 12.8827C15.4746 12.8827 14.875 12.2832 14.875 11.5435Z" fill="#272626"/>
</svg>
